<svg width="58" height="61" viewBox="0 0 58 61" fill="none" xmlns="http://www.w3.org/2000/svg">
<path d="M27.9879 30.778L10.8069 28.8L27.9879 26.8221L29.973 9.70244L31.9581 26.8221L49.1397 28.8L31.9581 30.778L29.973 47.897L27.9879 30.778Z" fill="#211E1F"/>
<path d="M29.973 10.9206L31.8312 26.9479L47.9165 28.7994L31.8312 30.6509L29.973 46.6782L28.1148 30.6509L12.0294 28.7988L28.1148 26.9472L29.973 10.9206ZM29.973 8.48428L27.861 26.6956L9.58368 28.8L27.8604 30.9044L29.9724 49.1158L32.0837 30.9044L50.3611 28.8L32.0837 26.6956L29.973 8.48428Z" fill="white"/>
<path d="M29.9549 43.2616C27.6147 43.2616 25.2958 42.6911 23.1701 41.567C19.7474 39.7566 17.2379 36.7261 16.1022 33.0349C14.9671 29.3431 15.3428 25.432 17.1597 22.0223C20.9106 14.9824 29.7105 12.2963 36.7759 16.0343C43.8407 19.7722 46.5371 28.5397 42.7856 35.5796C40.9686 38.99 37.9272 41.4904 34.2226 42.622C32.8188 43.0505 31.3825 43.2629 29.9549 43.2629V43.2616ZM29.9967 14.7669C24.9483 14.7669 20.0599 17.4747 17.5323 22.2185C15.7678 25.5298 15.4034 29.3275 16.5053 32.9116C17.6079 36.4963 20.0449 39.4384 23.3682 41.1965C26.6916 42.9546 30.503 43.3183 34.1001 42.2197C37.6978 41.1211 40.6505 38.6929 42.415 35.3816C44.1795 32.0702 44.5439 28.2725 43.4419 24.6884C42.34 21.1037 39.9023 18.1617 36.5796 16.4036C34.4808 15.2931 32.2225 14.7669 29.9967 14.7669Z" fill="#211E1F"/>
<path d="M33.2877 8.90178H31.8183L28.5831 2.26381L27.3973 8.90178H25.9279L27.5133 0H28.9827L32.2308 6.62517L33.4037 0H34.8731L33.2877 8.90178Z" fill="black"/>
<path d="M29.3875 60.087C28.7344 60.087 28.1476 59.9931 27.6271 59.8053C27.1066 59.6081 26.6933 59.3264 26.3871 58.9602C26.0809 58.5846 25.9279 58.1433 25.9279 57.6362C25.9279 57.5705 25.9381 57.4531 25.9585 57.2841H27.6883C27.6475 57.716 27.7853 58.0775 28.1016 58.3686C28.418 58.6503 28.8721 58.7912 29.4641 58.7912C30.0968 58.7912 30.5918 58.6738 30.949 58.4391C31.3062 58.1949 31.4848 57.8475 31.4848 57.3968C31.4848 57.1244 31.3929 56.8944 31.2092 56.7066C31.0357 56.5094 30.8112 56.3451 30.5356 56.2136C30.2703 56.0822 29.8978 55.9272 29.4181 55.7488C28.7854 55.5047 28.2802 55.284 27.9026 55.0868C27.525 54.8896 27.1984 54.6173 26.9229 54.2699C26.6576 53.9224 26.5249 53.4858 26.5249 52.96C26.5249 52.3778 26.6882 51.8707 27.0147 51.4388C27.3413 50.9974 27.7904 50.6594 28.3619 50.4246C28.9436 50.1899 29.5967 50.0725 30.3213 50.0725C31.0459 50.0725 31.6685 50.1852 32.1889 50.4106C32.7196 50.6265 33.1176 50.9364 33.383 51.3402C33.6585 51.7346 33.781 52.1994 33.7504 52.7346H31.9134C31.9542 52.3496 31.8266 52.0303 31.5307 51.7768C31.2347 51.5139 30.8061 51.3824 30.2448 51.3824C29.6529 51.3824 29.1783 51.5092 28.8211 51.7627C28.4741 52.0069 28.3006 52.3402 28.3006 52.7628C28.3006 53.0257 28.3874 53.2557 28.5609 53.4529C28.7446 53.6407 28.9742 53.8051 29.2497 53.9459C29.5253 54.0774 29.8978 54.237 30.3673 54.4248C31 54.6877 31.5052 54.9225 31.8828 55.1291C32.2706 55.3356 32.6023 55.6173 32.8778 55.9742C33.1534 56.3216 33.2911 56.7535 33.2911 57.27C33.2911 57.8146 33.1278 58.3029 32.8013 58.7348C32.4747 59.1574 32.0154 59.4907 31.4235 59.7349C30.8316 59.9696 30.1529 60.087 29.3875 60.087Z" fill="black"/>
<path d="M11.3918 25.5926L7.66923 33.3817H6.00241L5.47458 27.6282L2.91879 33.3817H1.25197L0.210205 25.5926H1.82147L2.34929 31.855L5.04399 25.5926H6.69692L7.18307 31.8267L9.8361 25.5926H11.3918Z" fill="black"/>
<path d="M52.821 25.6182L52.2498 28.3169H55.9549L55.7234 29.4424H52.0182L51.4161 32.2434H55.5844L55.3374 33.3817H49.4092L51.3081 24.4799H57.2363L56.9893 25.6182H52.821Z" fill="black"/>
</svg>
