<svg width="32" height="32" viewBox="0 0 32 32" fill="none" xmlns="http://www.w3.org/2000/svg">
<circle cx="16" cy="16" r="16" fill="url(#paint0_linear_16_1225)"/>
<path d="M14.5617 20.3158C14.5811 18.9684 14.7409 17.986 15.0412 17.3684C15.3414 16.7509 15.908 16.0772 16.7409 15.3474C17.5545 14.6363 18.1792 13.9766 18.615 13.3684C19.0508 12.7602 19.2688 12.1099 19.2688 11.4175C19.2688 10.5754 18.9782 9.87368 18.3971 9.31228C17.816 8.75088 17.0024 8.47018 15.9564 8.47018C14.9492 8.47018 14.1743 8.7462 13.632 9.29825C13.0896 9.85029 12.6925 10.4257 12.4407 11.0246L10 9.98597C10.4262 8.88187 11.1477 7.94152 12.1646 7.16491C13.1816 6.3883 14.4455 6 15.9564 6C17.8935 6 19.385 6.5193 20.431 7.55789C21.477 8.59649 22 9.84561 22 11.3053C22 12.2035 21.8015 13.0175 21.4044 13.7474C21.0073 14.4772 20.3729 15.2444 19.5012 16.0491C18.5521 16.9287 17.9806 17.6023 17.7869 18.0702C17.5932 18.538 17.4867 19.2865 17.4673 20.3158H14.5617ZM15.9564 27.3333C15.3947 27.3333 14.9153 27.1415 14.5182 26.7579C14.1211 26.3743 13.9225 25.9111 13.9225 25.3684C13.9225 24.8257 14.1211 24.3626 14.5182 23.9789C14.9153 23.5953 15.3947 23.4035 15.9564 23.4035C16.5182 23.4035 16.9976 23.5953 17.3947 23.9789C17.7918 24.3626 17.9903 24.8257 17.9903 25.3684C17.9903 25.9111 17.7918 26.3743 17.3947 26.7579C16.9976 27.1415 16.5182 27.3333 15.9564 27.3333Z" fill="white"/>
<defs>
<linearGradient id="paint0_linear_16_1225" x1="16" y1="0" x2="16" y2="32" gradientUnits="userSpaceOnUse">
<stop stop-color="#B74534"/>
<stop offset="1" stop-color="#C95D4D"/>
</linearGradient>
</defs>
</svg>
