<svg width="14" height="16" viewBox="0 0 14 16" fill="none" xmlns="http://www.w3.org/2000/svg">
<path d="M13.7342 2.375H9.8125V0.6875C9.8125 0.538316 9.75324 0.395242 9.64775 0.289752C9.54226 0.184263 9.39918 0.125 9.25 0.125H4.75C4.60082 0.125 4.45774 0.184263 4.35225 0.289752C4.24676 0.395242 4.1875 0.538316 4.1875 0.6875V2.375H0.26582L0.25 3.78125H1.41016L2.11645 14.8203C2.13432 15.1058 2.26026 15.3737 2.46866 15.5696C2.67705 15.7656 2.95225 15.8748 3.23828 15.875H10.7617C11.0476 15.875 11.3227 15.7661 11.5312 15.5705C11.7397 15.375 11.8659 15.1073 11.8843 14.8221L12.5898 3.78125H13.75L13.7342 2.375ZM4.1875 13.625L3.87109 4.625H5.03125L5.34766 13.625H4.1875ZM7.5625 13.625H6.4375V4.625H7.5625V13.625ZM8.40625 2.375H5.59375V1.39062C5.59375 1.35333 5.60857 1.31756 5.63494 1.29119C5.66131 1.26482 5.69708 1.25 5.73438 1.25H8.26562C8.30292 1.25 8.33869 1.26482 8.36506 1.29119C8.39143 1.31756 8.40625 1.35333 8.40625 1.39062V2.375ZM9.8125 13.625H8.65234L8.96875 4.625H10.1289L9.8125 13.625Z" fill="url(#paint0_linear_16_1235)"/>
<defs>
<linearGradient id="paint0_linear_16_1235" x1="7" y1="0.125" x2="7" y2="15.875" gradientUnits="userSpaceOnUse">
<stop stop-color="#B74534"/>
<stop offset="1" stop-color="#C95D4D"/>
</linearGradient>
</defs>
</svg>
